<svg width="166" height="44" viewBox="0 0 166 44" fill="none" xmlns="http://www.w3.org/2000/svg">
<g clip-path="url(#clip0_126_1740)">
<path d="M160.094 43.5H5.81596C4.38946 43.497 3.03207 42.988 2.03888 42.0988C1.04762 41.2113 0.502143 40.0212 0.5 38.7933V5.19902C0.502147 3.97194 1.04776 2.78277 2.03914 1.89648C3.03239 1.0085 4.38957 0.501122 5.8151 0.5H160.094C163.087 0.5 165.5 2.66882 165.5 5.1986V38.7937C165.5 41.3233 163.086 43.5 160.094 43.5Z" stroke="#EF3706"/>
<path d="M49.9395 8.02998C50.6995 8.02998 51.3562 8.17331 51.9095 8.45998C52.4695 8.73998 52.8962 9.14331 53.1895 9.66998C53.4895 10.1967 53.6395 10.8167 53.6395 11.53C53.6395 12.2433 53.4895 12.8633 53.1895 13.39C52.8962 13.91 52.4695 14.31 51.9095 14.59C51.3562 14.8633 50.6995 15 49.9395 15H47.7695V8.02998H49.9395ZM49.9395 14.25C50.8395 14.25 51.5262 14.0133 51.9995 13.54C52.4728 13.06 52.7095 12.39 52.7095 11.53C52.7095 10.6633 52.4695 9.98665 51.9895 9.49998C51.5162 9.01331 50.8328 8.76998 49.9395 8.76998H48.6795V14.25H49.9395ZM57.2298 15.09C56.7165 15.09 56.2498 14.9733 55.8298 14.74C55.4165 14.5067 55.0898 14.1767 54.8498 13.75C54.6165 13.3167 54.4998 12.8167 54.4998 12.25C54.4998 11.69 54.6198 11.1967 54.8598 10.77C55.1065 10.3367 55.4398 10.0067 55.8598 9.77998C56.2798 9.54665 56.7498 9.42998 57.2698 9.42998C57.7898 9.42998 58.2598 9.54665 58.6798 9.77998C59.0998 10.0067 59.4298 10.3333 59.6698 10.76C59.9165 11.1867 60.0398 11.6833 60.0398 12.25C60.0398 12.8167 59.9131 13.3167 59.6598 13.75C59.4131 14.1767 59.0765 14.5067 58.6498 14.74C58.2231 14.9733 57.7498 15.09 57.2298 15.09ZM57.2298 14.29C57.5565 14.29 57.8631 14.2133 58.1498 14.06C58.4365 13.9067 58.6665 13.6767 58.8398 13.37C59.0198 13.0633 59.1098 12.69 59.1098 12.25C59.1098 11.81 59.0231 11.4367 58.8498 11.13C58.6765 10.8233 58.4498 10.5967 58.1698 10.45C57.8898 10.2967 57.5865 10.22 57.2598 10.22C56.9265 10.22 56.6198 10.2967 56.3398 10.45C56.0665 10.5967 55.8465 10.8233 55.6798 11.13C55.5131 11.4367 55.4298 11.81 55.4298 12.25C55.4298 12.6967 55.5098 13.0733 55.6698 13.38C55.8365 13.6867 56.0565 13.9167 56.3298 14.07C56.6031 14.2167 56.9031 14.29 57.2298 14.29ZM68.5363 9.51998L66.8263 15H65.8863L64.5663 10.65L63.2463 15H62.3063L60.5863 9.51998H61.5163L62.7763 14.12L64.1363 9.51998H65.0663L66.3963 14.13L67.6363 9.51998H68.5363ZM72.1094 9.41998C72.7761 9.41998 73.3161 9.62331 73.7294 10.03C74.1428 10.43 74.3494 11.01 74.3494 11.77V15H73.4494V11.9C73.4494 11.3533 73.3128 10.9367 73.0394 10.65C72.7661 10.3567 72.3928 10.21 71.9194 10.21C71.4394 10.21 71.0561 10.36 70.7694 10.66C70.4894 10.96 70.3494 11.3967 70.3494 11.97V15H69.4394V9.51998H70.3494V10.3C70.5294 10.02 70.7728 9.80331 71.0794 9.64998C71.3928 9.49665 71.7361 9.41998 72.1094 9.41998ZM76.7459 7.59998V15H75.8359V7.59998H76.7459ZM80.6868 15.09C80.1735 15.09 79.7068 14.9733 79.2868 14.74C78.8735 14.5067 78.5468 14.1767 78.3068 13.75C78.0735 13.3167 77.9568 12.8167 77.9568 12.25C77.9568 11.69 78.0768 11.1967 78.3168 10.77C78.5635 10.3367 78.8968 10.0067 79.3168 9.77998C79.7368 9.54665 80.2068 9.42998 80.7268 9.42998C81.2468 9.42998 81.7168 9.54665 82.1368 9.77998C82.5568 10.0067 82.8868 10.3333 83.1268 10.76C83.3735 11.1867 83.4968 11.6833 83.4968 12.25C83.4968 12.8167 83.3702 13.3167 83.1168 13.75C82.8702 14.1767 82.5335 14.5067 82.1068 14.74C81.6802 14.9733 81.2068 15.09 80.6868 15.09ZM80.6868 14.29C81.0135 14.29 81.3202 14.2133 81.6068 14.06C81.8935 13.9067 82.1235 13.6767 82.2968 13.37C82.4768 13.0633 82.5668 12.69 82.5668 12.25C82.5668 11.81 82.4802 11.4367 82.3068 11.13C82.1335 10.8233 81.9068 10.5967 81.6268 10.45C81.3468 10.2967 81.0435 10.22 80.7168 10.22C80.3835 10.22 80.0768 10.2967 79.7968 10.45C79.5235 10.5967 79.3035 10.8233 79.1368 11.13C78.9702 11.4367 78.8868 11.81 78.8868 12.25C78.8868 12.6967 78.9668 13.0733 79.1268 13.38C79.2935 13.6867 79.5135 13.9167 79.7868 14.07C80.0602 14.2167 80.3602 14.29 80.6868 14.29ZM84.3533 12.24C84.3533 11.68 84.4667 11.19 84.6933 10.77C84.92 10.3433 85.23 10.0133 85.6233 9.77998C86.0233 9.54665 86.4667 9.42998 86.9533 9.42998C87.4333 9.42998 87.85 9.53331 88.2033 9.73998C88.5567 9.94665 88.82 10.2067 88.9933 10.52V9.51998H89.9133V15H88.9933V13.98C88.8133 14.3 88.5433 14.5667 88.1833 14.78C87.83 14.9867 87.4167 15.09 86.9433 15.09C86.4567 15.09 86.0167 14.97 85.6233 14.73C85.23 14.49 84.92 14.1533 84.6933 13.72C84.4667 13.2867 84.3533 12.7933 84.3533 12.24ZM88.9933 12.25C88.9933 11.8367 88.91 11.4767 88.7433 11.17C88.5767 10.8633 88.35 10.63 88.0633 10.47C87.7833 10.3033 87.4733 10.22 87.1333 10.22C86.7933 10.22 86.4833 10.3 86.2033 10.46C85.9233 10.62 85.7 10.8533 85.5333 11.16C85.3667 11.4667 85.2833 11.8267 85.2833 12.24C85.2833 12.66 85.3667 13.0267 85.5333 13.34C85.7 13.6467 85.9233 13.8833 86.2033 14.05C86.4833 14.21 86.7933 14.29 87.1333 14.29C87.4733 14.29 87.7833 14.21 88.0633 14.05C88.35 13.8833 88.5767 13.6467 88.7433 13.34C88.91 13.0267 88.9933 12.6633 88.9933 12.25ZM91.1111 12.24C91.1111 11.68 91.2245 11.19 91.4511 10.77C91.6778 10.3433 91.9878 10.0133 92.3811 9.77998C92.7811 9.54665 93.2278 9.42998 93.7211 9.42998C94.1478 9.42998 94.5445 9.52998 94.9111 9.72998C95.2778 9.92331 95.5578 10.18 95.7511 10.5V7.59998H96.6711V15H95.7511V13.97C95.5711 14.2967 95.3045 14.5667 94.9511 14.78C94.5978 14.9867 94.1845 15.09 93.7111 15.09C93.2245 15.09 92.7811 14.97 92.3811 14.73C91.9878 14.49 91.6778 14.1533 91.4511 13.72C91.2245 13.2867 91.1111 12.7933 91.1111 12.24ZM95.7511 12.25C95.7511 11.8367 95.6678 11.4767 95.5011 11.17C95.3345 10.8633 95.1078 10.63 94.8211 10.47C94.5411 10.3033 94.2311 10.22 93.8911 10.22C93.5511 10.22 93.2411 10.3 92.9611 10.46C92.6811 10.62 92.4578 10.8533 92.2911 11.16C92.1245 11.4667 92.0411 11.8267 92.0411 12.24C92.0411 12.66 92.1245 13.0267 92.2911 13.34C92.4578 13.6467 92.6811 13.8833 92.9611 14.05C93.2411 14.21 93.5511 14.29 93.8911 14.29C94.2311 14.29 94.5411 14.21 94.8211 14.05C95.1078 13.8833 95.3345 13.6467 95.5011 13.34C95.6678 13.0267 95.7511 12.6633 95.7511 12.25ZM103.265 15.09C102.752 15.09 102.285 14.9733 101.865 14.74C101.452 14.5067 101.125 14.1767 100.885 13.75C100.652 13.3167 100.535 12.8167 100.535 12.25C100.535 11.69 100.655 11.1967 100.895 10.77C101.142 10.3367 101.475 10.0067 101.895 9.77998C102.315 9.54665 102.785 9.42998 103.305 9.42998C103.825 9.42998 104.295 9.54665 104.715 9.77998C105.135 10.0067 105.465 10.3333 105.705 10.76C105.952 11.1867 106.075 11.6833 106.075 12.25C106.075 12.8167 105.949 13.3167 105.695 13.75C105.449 14.1767 105.112 14.5067 104.685 14.74C104.259 14.9733 103.785 15.09 103.265 15.09ZM103.265 14.29C103.592 14.29 103.899 14.2133 104.185 14.06C104.472 13.9067 104.702 13.6767 104.875 13.37C105.055 13.0633 105.145 12.69 105.145 12.25C105.145 11.81 105.059 11.4367 104.885 11.13C104.712 10.8233 104.485 10.5967 104.205 10.45C103.925 10.2967 103.622 10.22 103.295 10.22C102.962 10.22 102.655 10.2967 102.375 10.45C102.102 10.5967 101.882 10.8233 101.715 11.13C101.549 11.4367 101.465 11.81 101.465 12.25C101.465 12.6967 101.545 13.0733 101.705 13.38C101.872 13.6867 102.092 13.9167 102.365 14.07C102.639 14.2167 102.939 14.29 103.265 14.29ZM109.942 9.41998C110.609 9.41998 111.149 9.62331 111.562 10.03C111.975 10.43 112.182 11.01 112.182 11.77V15H111.282V11.9C111.282 11.3533 111.145 10.9367 110.872 10.65C110.599 10.3567 110.225 10.21 109.752 10.21C109.272 10.21 108.889 10.36 108.602 10.66C108.322 10.96 108.182 11.3967 108.182 11.97V15H107.272V9.51998H108.182V10.3C108.362 10.02 108.605 9.80331 108.912 9.64998C109.225 9.49665 109.569 9.41998 109.942 9.41998ZM117.444 10.27V13.5C117.444 13.7667 117.501 13.9567 117.614 14.07C117.728 14.1767 117.924 14.23 118.204 14.23H118.874V15H118.054C117.548 15 117.168 14.8833 116.914 14.65C116.661 14.4167 116.534 14.0333 116.534 13.5V10.27H115.824V9.51998H116.534V8.13998H117.444V9.51998H118.874V10.27H117.444ZM122.697 9.41998C123.11 9.41998 123.484 9.50998 123.817 9.68998C124.15 9.86331 124.41 10.1267 124.597 10.48C124.79 10.8333 124.887 11.2633 124.887 11.77V15H123.987V11.9C123.987 11.3533 123.85 10.9367 123.577 10.65C123.304 10.3567 122.93 10.21 122.457 10.21C121.977 10.21 121.594 10.36 121.307 10.66C121.027 10.96 120.887 11.3967 120.887 11.97V15H119.977V7.59998H120.887V10.3C121.067 10.02 121.314 9.80331 121.627 9.64998C121.947 9.49665 122.304 9.41998 122.697 9.41998ZM131.374 12.05C131.374 12.2233 131.364 12.4067 131.344 12.6H126.964C126.997 13.14 127.18 13.5633 127.514 13.87C127.854 14.17 128.264 14.32 128.744 14.32C129.137 14.32 129.464 14.23 129.724 14.05C129.99 13.8633 130.177 13.6167 130.284 13.31H131.264C131.117 13.8367 130.824 14.2667 130.384 14.6C129.944 14.9267 129.397 15.09 128.744 15.09C128.224 15.09 127.757 14.9733 127.344 14.74C126.937 14.5067 126.617 14.1767 126.384 13.75C126.15 13.3167 126.034 12.8167 126.034 12.25C126.034 11.6833 126.147 11.1867 126.374 10.76C126.6 10.3333 126.917 10.0067 127.324 9.77998C127.737 9.54665 128.21 9.42998 128.744 9.42998C129.264 9.42998 129.724 9.54331 130.124 9.76998C130.524 9.99665 130.83 10.31 131.044 10.71C131.264 11.1033 131.374 11.55 131.374 12.05ZM130.434 11.86C130.434 11.5133 130.357 11.2167 130.204 10.97C130.05 10.7167 129.84 10.5267 129.574 10.4C129.314 10.2667 129.024 10.2 128.704 10.2C128.244 10.2 127.85 10.3467 127.524 10.64C127.204 10.9333 127.02 11.34 126.974 11.86H130.434Z" fill="#EF3706"/>
<path d="M54.8923 30.444H49.6543L48.7543 33H46.6123L51.0943 20.472H53.4703L57.9523 33H55.7923L54.8923 30.444ZM54.3163 28.77L52.2823 22.956L50.2303 28.77H54.3163ZM61.9531 24.54C62.3011 24.084 62.7751 23.7 63.3751 23.388C63.9751 23.076 64.6531 22.92 65.4091 22.92C66.2731 22.92 67.0591 23.136 67.7671 23.568C68.4871 23.988 69.0511 24.582 69.4591 25.35C69.8671 26.118 70.0711 27 70.0711 27.996C70.0711 28.992 69.8671 29.886 69.4591 30.678C69.0511 31.458 68.4871 32.07 67.7671 32.514C67.0591 32.946 66.2731 33.162 65.4091 33.162C64.6531 33.162 63.9811 33.012 63.3931 32.712C62.8051 32.4 62.3251 32.016 61.9531 31.56V37.716H59.9011V23.082H61.9531V24.54ZM67.9831 27.996C67.9831 27.312 67.8391 26.724 67.5511 26.232C67.2751 25.728 66.9031 25.35 66.4351 25.098C65.9791 24.834 65.4871 24.702 64.9591 24.702C64.4431 24.702 63.9511 24.834 63.4831 25.098C63.0271 25.362 62.6551 25.746 62.3671 26.25C62.0911 26.754 61.9531 27.348 61.9531 28.032C61.9531 28.716 62.0911 29.316 62.3671 29.832C62.6551 30.336 63.0271 30.72 63.4831 30.984C63.9511 31.248 64.4431 31.38 64.9591 31.38C65.4871 31.38 65.9791 31.248 66.4351 30.984C66.9031 30.708 67.2751 30.312 67.5511 29.796C67.8391 29.28 67.9831 28.68 67.9831 27.996ZM74.1523 24.54C74.5003 24.084 74.9743 23.7 75.5743 23.388C76.1743 23.076 76.8523 22.92 77.6083 22.92C78.4723 22.92 79.2583 23.136 79.9663 23.568C80.6863 23.988 81.2503 24.582 81.6583 25.35C82.0663 26.118 82.2703 27 82.2703 27.996C82.2703 28.992 82.0663 29.886 81.6583 30.678C81.2503 31.458 80.6863 32.07 79.9663 32.514C79.2583 32.946 78.4723 33.162 77.6083 33.162C76.8523 33.162 76.1803 33.012 75.5923 32.712C75.0043 32.4 74.5243 32.016 74.1523 31.56V37.716H72.1003V23.082H74.1523V24.54ZM80.1823 27.996C80.1823 27.312 80.0383 26.724 79.7503 26.232C79.4743 25.728 79.1023 25.35 78.6343 25.098C78.1783 24.834 77.6863 24.702 77.1583 24.702C76.6423 24.702 76.1503 24.834 75.6823 25.098C75.2263 25.362 74.8543 25.746 74.5663 26.25C74.2903 26.754 74.1523 27.348 74.1523 28.032C74.1523 28.716 74.2903 29.316 74.5663 29.832C74.8543 30.336 75.2263 30.72 75.6823 30.984C76.1503 31.248 76.6423 31.38 77.1583 31.38C77.6863 31.38 78.1783 31.248 78.6343 30.984C79.1023 30.708 79.4743 30.312 79.7503 29.796C80.0383 29.28 80.1823 28.68 80.1823 27.996ZM93.0973 33.126C92.2573 33.126 91.5013 32.982 90.8293 32.694C90.1573 32.394 89.6293 31.974 89.2453 31.434C88.8613 30.894 88.6693 30.264 88.6693 29.544H90.8653C90.9133 30.084 91.1233 30.528 91.4953 30.876C91.8793 31.224 92.4133 31.398 93.0973 31.398C93.8053 31.398 94.3573 31.23 94.7533 30.894C95.1493 30.546 95.3473 30.102 95.3473 29.562C95.3473 29.142 95.2213 28.8 94.9693 28.536C94.7293 28.272 94.4233 28.068 94.0513 27.924C93.6913 27.78 93.1873 27.624 92.5393 27.456C91.7233 27.24 91.0573 27.024 90.5413 26.808C90.0373 26.58 89.6053 26.232 89.2453 25.764C88.8853 25.296 88.7053 24.672 88.7053 23.892C88.7053 23.172 88.8853 22.542 89.2453 22.002C89.6053 21.462 90.1093 21.048 90.7573 20.76C91.4053 20.472 92.1553 20.328 93.0073 20.328C94.2193 20.328 95.2093 20.634 95.9773 21.246C96.7573 21.846 97.1893 22.674 97.2733 23.73H95.0053C94.9693 23.274 94.7533 22.884 94.3573 22.56C93.9613 22.236 93.4393 22.074 92.7913 22.074C92.2033 22.074 91.7233 22.224 91.3513 22.524C90.9793 22.824 90.7933 23.256 90.7933 23.82C90.7933 24.204 90.9073 24.522 91.1353 24.774C91.3753 25.014 91.6753 25.206 92.0353 25.35C92.3953 25.494 92.8873 25.65 93.5113 25.818C94.3393 26.046 95.0113 26.274 95.5273 26.502C96.0553 26.73 96.4993 27.084 96.8593 27.564C97.2313 28.032 97.4173 28.662 97.4173 29.454C97.4173 30.09 97.2433 30.69 96.8953 31.254C96.5593 31.818 96.0613 32.274 95.4013 32.622C94.7533 32.958 93.9853 33.126 93.0973 33.126ZM102.232 24.756V30.246C102.232 30.618 102.316 30.888 102.484 31.056C102.664 31.212 102.964 31.29 103.384 31.29H104.644V33H103.024C102.1 33 101.392 32.784 100.9 32.352C100.408 31.92 100.162 31.218 100.162 30.246V24.756H98.9926V23.082H100.162V20.616H102.232V23.082H104.644V24.756H102.232ZM110.838 33.162C109.902 33.162 109.056 32.952 108.3 32.532C107.544 32.1 106.95 31.5 106.518 30.732C106.086 29.952 105.87 29.052 105.87 28.032C105.87 27.024 106.092 26.13 106.536 25.35C106.98 24.57 107.586 23.97 108.354 23.55C109.122 23.13 109.98 22.92 110.928 22.92C111.876 22.92 112.734 23.13 113.502 23.55C114.27 23.97 114.876 24.57 115.32 25.35C115.764 26.13 115.986 27.024 115.986 28.032C115.986 29.04 115.758 29.934 115.302 30.714C114.846 31.494 114.222 32.1 113.43 32.532C112.65 32.952 111.786 33.162 110.838 33.162ZM110.838 31.38C111.366 31.38 111.858 31.254 112.314 31.002C112.782 30.75 113.16 30.372 113.448 29.868C113.736 29.364 113.88 28.752 113.88 28.032C113.88 27.312 113.742 26.706 113.466 26.214C113.19 25.71 112.824 25.332 112.368 25.08C111.912 24.828 111.42 24.702 110.892 24.702C110.364 24.702 109.872 24.828 109.416 25.08C108.972 25.332 108.618 25.71 108.354 26.214C108.09 26.706 107.958 27.312 107.958 28.032C107.958 29.1 108.228 29.928 108.768 30.516C109.32 31.092 110.01 31.38 110.838 31.38ZM120.066 24.522C120.366 24.018 120.762 23.628 121.254 23.352C121.758 23.064 122.352 22.92 123.036 22.92V25.044H122.514C121.71 25.044 121.098 25.248 120.678 25.656C120.27 26.064 120.066 26.772 120.066 27.78V33H118.014V23.082H120.066V24.522ZM134.012 27.798C134.012 28.17 133.988 28.506 133.94 28.806H126.362C126.422 29.598 126.716 30.234 127.244 30.714C127.772 31.194 128.42 31.434 129.188 31.434C130.292 31.434 131.072 30.972 131.528 30.048H133.742C133.442 30.96 132.896 31.71 132.104 32.298C131.324 32.874 130.352 33.162 129.188 33.162C128.24 33.162 127.388 32.952 126.632 32.532C125.888 32.1 125.3 31.5 124.868 30.732C124.448 29.952 124.238 29.052 124.238 28.032C124.238 27.012 124.442 26.118 124.85 25.35C125.27 24.57 125.852 23.97 126.596 23.55C127.352 23.13 128.216 22.92 129.188 22.92C130.124 22.92 130.958 23.124 131.69 23.532C132.422 23.94 132.992 24.516 133.4 25.26C133.808 25.992 134.012 26.838 134.012 27.798ZM131.87 27.15C131.858 26.394 131.588 25.788 131.06 25.332C130.532 24.876 129.878 24.648 129.098 24.648C128.39 24.648 127.784 24.876 127.28 25.332C126.776 25.776 126.476 26.382 126.38 27.15H131.87Z" fill="#EF3706"/>
<path d="M31.3361 20.567C31.3071 17.344 33.9751 15.776 34.0971 15.703C32.5861 13.5 30.2441 13.199 29.4211 13.175C27.4541 12.968 25.5461 14.352 24.5441 14.352C23.5221 14.352 21.9791 13.195 20.3161 13.229C18.1761 13.262 16.1741 14.501 15.0761 16.425C12.8101 20.348 14.5001 26.113 16.6711 29.284C17.7571 30.837 19.0261 32.571 20.6871 32.51C22.3121 32.443 22.9191 31.474 24.8801 31.474C26.8231 31.474 27.3931 32.51 29.0871 32.471C30.8311 32.443 31.9291 30.911 32.9771 29.344C34.2321 27.564 34.7361 25.811 34.7561 25.721C34.7151 25.707 31.3691 24.43 31.3361 20.567ZM28.1361 11.089C29.0101 9.996 29.6081 8.509 29.4421 7C28.1771 7.056 26.5951 7.875 25.6841 8.944C24.8781 9.886 24.1581 11.43 24.3441 12.882C25.7651 12.988 27.2241 12.165 28.1361 11.089Z" fill="#EF3706"/>
</g>
<defs>
<clipPath id="clip0_126_1740">
<rect width="166" height="44" fill="white"/>
</clipPath>
</defs>
</svg>
