<svg width="21" height="21" viewBox="0 0 21 21" fill="none" xmlns="http://www.w3.org/2000/svg">
<g clip-path="url(#clip0_35_276)">
<path d="M16.9456 6.25C16.9456 5.58333 16.3622 5 15.6956 5H14.0289V3.75C13.9456 2 12.5289 0.5 10.6956 0.5C8.86222 0.5 7.52889 2 7.52889 3.75V5.08333H5.86222C5.19556 5.08333 4.61222 5.58333 4.61222 6.33333L3.44556 19.0833C3.44556 19.8333 4.02889 20.5 4.77889 20.5H16.6122C17.3622 20.5 17.9456 19.8333 17.8622 19.0833L16.9456 6.25ZM8.52889 3.75C8.52889 2.5 9.52889 1.5 10.7789 1.5C12.0289 1.5 13.0289 2.5 13.0289 3.75V5.08333H8.52889V3.75ZM8.02889 7.5C7.52889 7.5 7.19556 7.16667 7.19556 6.75C7.19556 6.25 7.52889 6 7.94556 6C8.36222 6 8.69556 6.33333 8.69556 6.75C8.77889 7.25 8.44556 7.5 8.02889 7.5ZM13.4456 7.5C12.9456 7.5 12.6956 7.16667 12.6956 6.75C12.6956 6.25 13.0289 6 13.4456 6C13.8622 6 14.1956 6.33333 14.1956 6.75C14.1956 7.25 13.8622 7.5 13.4456 7.5Z" fill="white"/>
</g>
<defs>
<clipPath id="clip0_35_276">
<rect width="20" height="20" fill="white" transform="translate(0.695557 0.5)"/>
</clipPath>
</defs>
</svg>
