<svg width="48" height="48" viewBox="0 0 48 48" fill="none" xmlns="http://www.w3.org/2000/svg">
<rect width="48" height="48" rx="12" fill="#EF3706"/>
<rect x="12" y="12" width="24" height="24" rx="12" fill="white"/>
<path d="M24.7204 22.8C24.2404 22.68 23.7604 22.44 23.4004 22.08C23.0404 21.96 22.9204 21.6 22.9204 21.36C22.9204 21.12 23.0404 20.76 23.2804 20.64C23.6404 20.4 24.0004 20.16 24.3604 20.28C25.0804 20.28 25.6804 20.64 26.0404 21.12L27.1204 19.68C26.7604 19.32 26.4004 19.08 26.0404 18.84C25.6804 18.6 25.2004 18.48 24.7204 18.48V16.8H23.2804V18.48C22.6804 18.6 22.0804 18.96 21.6004 19.44C21.1204 20.04 20.7604 20.76 20.8804 21.48C20.8804 22.2 21.1204 22.92 21.6004 23.4C22.2004 24 23.0404 24.36 23.7604 24.72C24.1204 24.84 24.6004 25.08 24.9604 25.32C25.2004 25.56 25.3204 25.92 25.3204 26.28C25.3204 26.64 25.2004 27 24.9604 27.36C24.6004 27.72 24.1204 27.84 23.7604 27.84C23.2804 27.84 22.6804 27.72 22.3204 27.36C21.9604 27.12 21.6004 26.76 21.3604 26.4L20.1604 27.72C20.5204 28.2 20.8804 28.56 21.3604 28.92C21.9604 29.28 22.6804 29.64 23.4004 29.64V31.2H24.7204V29.4C25.4404 29.28 26.0404 28.92 26.5204 28.44C27.1204 27.84 27.4804 26.88 27.4804 26.04C27.4804 25.32 27.2404 24.48 26.6404 24C26.0404 23.4 25.4404 23.04 24.7204 22.8ZM24.0004 14.4C18.7204 14.4 14.4004 18.72 14.4004 24C14.4004 29.28 18.7204 33.6 24.0004 33.6C29.2804 33.6 33.6004 29.28 33.6004 24C33.6004 18.72 29.2804 14.4 24.0004 14.4ZM24.0004 32.28C19.4404 32.28 15.7204 28.56 15.7204 24C15.7204 19.44 19.4404 15.72 24.0004 15.72C28.5604 15.72 32.2804 19.44 32.2804 24C32.2804 28.56 28.5604 32.28 24.0004 32.28Z" fill="#EF3706"/>
</svg>
