<svg width="553" height="383" viewBox="0 0 553 383" fill="none" xmlns="http://www.w3.org/2000/svg">
<path d="M375 328.112C381 309.362 403.35 276.362 444.75 294.362C496.5 316.862 569.25 330.362 546.75 238.112C535.957 193.862 471 238.112 485.25 176.612" stroke="#936003" stroke-width="3" stroke-dasharray="19.5 19.5"/>
<path d="M462 139.862C438.75 118.112 471.75 100.862 483.75 119.611V150.362C475.675 167.16 456.15 152.119 462 139.862Z" fill="#936003"/>
<path d="M504.75 140.367C528 118.618 495 101.367 483 120.117V150.868C491.075 167.666 510.6 152.625 504.75 140.367Z" fill="#FFA500"/>
<rect x="196.774" y="32.7708" width="9.00001" height="12" transform="rotate(-16 196.774 32.7708)" fill="#FFA500"/>
<g filter="url(#filter0_i_314_1598)">
<ellipse cx="197.379" cy="18.5534" rx="15" ry="15" transform="rotate(-16 197.379 18.5534)" fill="#FFA500"/>
</g>
<path d="M428.769 211.113C391.269 239.613 102.519 277.862 55.2686 267.362C194.769 213.361 278.769 199.862 428.769 211.113Z" fill="#936003"/>
<g filter="url(#filter1_i_314_1598)">
<path d="M55.2712 267.361C16.8998 4.60436 389.019 -58.138 428.772 211.111C283.311 210.976 188.454 223.79 55.2712 267.361Z" fill="#FFA500"/>
</g>
<ellipse cx="240" cy="373.112" rx="240" ry="9" fill="#FFA500"/>
<defs>
<filter id="filter0_i_314_1598" x="182.375" y="3.54956" width="30.0078" height="30.0078" filterUnits="userSpaceOnUse" color-interpolation-filters="sRGB">
<feFlood flood-opacity="0" result="BackgroundImageFix"/>
<feBlend mode="normal" in="SourceGraphic" in2="BackgroundImageFix" result="shape"/>
<feColorMatrix in="SourceAlpha" type="matrix" values="0 0 0 0 0 0 0 0 0 0 0 0 0 0 0 0 0 0 127 0" result="hardAlpha"/>
<feOffset/>
<feGaussianBlur stdDeviation="3"/>
<feComposite in2="hardAlpha" operator="arithmetic" k2="-1" k3="1"/>
<feColorMatrix type="matrix" values="0 0 0 0 1 0 0 0 0 1 0 0 0 0 1 0 0 0 0.65 0"/>
<feBlend mode="normal" in2="shape" result="effect1_innerShadow_314_1598"/>
</filter>
<filter id="filter1_i_314_1598" x="52.5" y="37.2615" width="376.271" height="232.1" filterUnits="userSpaceOnUse" color-interpolation-filters="sRGB">
<feFlood flood-opacity="0" result="BackgroundImageFix"/>
<feBlend mode="normal" in="SourceGraphic" in2="BackgroundImageFix" result="shape"/>
<feColorMatrix in="SourceAlpha" type="matrix" values="0 0 0 0 0 0 0 0 0 0 0 0 0 0 0 0 0 0 127 0" result="hardAlpha"/>
<feOffset dy="2"/>
<feGaussianBlur stdDeviation="9"/>
<feComposite in2="hardAlpha" operator="arithmetic" k2="-1" k3="1"/>
<feColorMatrix type="matrix" values="0 0 0 0 1 0 0 0 0 1 0 0 0 0 1 0 0 0 0.7 0"/>
<feBlend mode="normal" in2="shape" result="effect1_innerShadow_314_1598"/>
</filter>
</defs>
</svg>
