<svg width="31" height="30" viewBox="0 0 31 30" fill="none" xmlns="http://www.w3.org/2000/svg">
<rect x="0.5" width="30" height="30" rx="6" fill="#3B5998"/>
<path fill-rule="evenodd" clip-rule="evenodd" d="M19.5605 11.5C19.5605 11.85 19.3279 12.0833 18.9789 12.0833H17.2342V13.25H18.9789C19.1534 13.25 19.3279 13.25 19.4442 13.425C19.5605 13.6 19.6187 13.775 19.5605 13.95L18.9789 16.2833C18.9208 16.575 18.6881 16.75 18.3974 16.75H17.2342V20.8333C17.2342 21.1833 17.0016 21.4166 16.6526 21.4166H14.3263C13.9774 21.4166 13.7447 21.1833 13.7447 20.8333V16.75H12.5816C12.2326 16.75 12 16.5166 12 16.1666V13.8333C12 13.4833 12.2326 13.25 12.5816 13.25H13.7447V12.0833C13.7447 10.1583 15.315 8.58331 17.2342 8.58331H18.9789C19.3279 8.58331 19.5605 8.81665 19.5605 9.16665V11.5ZM18.2229 14.4166H16.6526C16.3037 14.4166 16.071 14.1833 16.071 13.8333V12.0833C16.071 11.4416 16.5945 10.9166 17.2342 10.9166H18.3974V9.74998H17.2342C15.9547 9.74998 14.9079 10.8 14.9079 12.0833V13.8333C14.9079 14.1833 14.6753 14.4166 14.3263 14.4166H13.1632V15.5833H14.3263C14.6753 15.5833 14.9079 15.8166 14.9079 16.1666V20.25H16.071V16.1666C16.071 15.8166 16.3037 15.5833 16.6526 15.5833H17.9321L18.2229 14.4166Z" fill="black"/>
<mask id="mask0_133_38332" style="mask-type:luminance" maskUnits="userSpaceOnUse" x="12" y="8" width="8" height="14">
<path fill-rule="evenodd" clip-rule="evenodd" d="M19.5605 11.5C19.5605 11.85 19.3279 12.0833 18.9789 12.0833H17.2342V13.25H18.9789C19.1534 13.25 19.3279 13.25 19.4442 13.425C19.5605 13.6 19.6187 13.775 19.5605 13.95L18.9789 16.2833C18.9208 16.575 18.6881 16.75 18.3974 16.75H17.2342V20.8333C17.2342 21.1833 17.0016 21.4166 16.6526 21.4166H14.3263C13.9774 21.4166 13.7447 21.1833 13.7447 20.8333V16.75H12.5816C12.2326 16.75 12 16.5166 12 16.1666V13.8333C12 13.4833 12.2326 13.25 12.5816 13.25H13.7447V12.0833C13.7447 10.1583 15.315 8.58331 17.2342 8.58331H18.9789C19.3279 8.58331 19.5605 8.81665 19.5605 9.16665V11.5ZM18.2229 14.4166H16.6526C16.3037 14.4166 16.071 14.1833 16.071 13.8333V12.0833C16.071 11.4416 16.5945 10.9166 17.2342 10.9166H18.3974V9.74998H17.2342C15.9547 9.74998 14.9079 10.8 14.9079 12.0833V13.8333C14.9079 14.1833 14.6753 14.4166 14.3263 14.4166H13.1632V15.5833H14.3263C14.6753 15.5833 14.9079 15.8166 14.9079 16.1666V20.25H16.071V16.1666C16.071 15.8166 16.3037 15.5833 16.6526 15.5833H17.9321L18.2229 14.4166Z" fill="white"/>
</mask>
<g mask="url(#mask0_133_38332)">
<rect x="8.5" y="8" width="14" height="14" fill="white"/>
</g>
</svg>
