<svg width="166" height="44" viewBox="0 0 166 44" fill="none" xmlns="http://www.w3.org/2000/svg">
<g clip-path="url(#clip0_126_1731)">
<mask id="mask0_126_1731" style="mask-type:luminance" maskUnits="userSpaceOnUse" x="0" y="0" width="166" height="44">
<path d="M166 0H0V44H166V0Z" fill="white"/>
</mask>
<g mask="url(#mask0_126_1731)">
<path d="M5.81596 43.5H160.094C163.086 43.5 165.5 41.3233 165.5 38.7937V5.1986C165.5 2.66882 163.087 0.5 160.094 0.5H5.8151C4.38957 0.501122 3.03239 1.0085 2.03914 1.89648C1.04776 2.78277 0.502147 3.97194 0.5 5.19902V38.7933C0.502143 40.0212 1.04762 41.2113 2.03888 42.0988C3.03183 42.9878 4.3888 43.4968 5.81492 43.5C5.81526 43.5 5.81561 43.5 5.81596 43.5ZM5.81596 43.5L5.81492 44" stroke="#FFA500"/>
<path d="M48.9395 8.02998C49.6995 8.02998 50.3562 8.17331 50.9095 8.45998C51.4695 8.73998 51.8962 9.14331 52.1895 9.66998C52.4895 10.1967 52.6395 10.8167 52.6395 11.53C52.6395 12.2433 52.4895 12.8633 52.1895 13.39C51.8962 13.91 51.4695 14.31 50.9095 14.59C50.3562 14.8633 49.6995 15 48.9395 15H46.7695V8.02998H48.9395ZM48.9395 14.25C49.8395 14.25 50.5262 14.0133 50.9995 13.54C51.4728 13.06 51.7095 12.39 51.7095 11.53C51.7095 10.6633 51.4695 9.98665 50.9895 9.49998C50.5162 9.01331 49.8328 8.76998 48.9395 8.76998H47.6795V14.25H48.9395ZM56.2298 15.09C55.7165 15.09 55.2498 14.9733 54.8298 14.74C54.4165 14.5067 54.0898 14.1767 53.8498 13.75C53.6165 13.3167 53.4998 12.8167 53.4998 12.25C53.4998 11.69 53.6198 11.1967 53.8598 10.77C54.1065 10.3367 54.4398 10.0067 54.8598 9.77998C55.2798 9.54665 55.7498 9.42998 56.2698 9.42998C56.7898 9.42998 57.2598 9.54665 57.6798 9.77998C58.0998 10.0067 58.4298 10.3333 58.6698 10.76C58.9165 11.1867 59.0398 11.6833 59.0398 12.25C59.0398 12.8167 58.9131 13.3167 58.6598 13.75C58.4131 14.1767 58.0765 14.5067 57.6498 14.74C57.2231 14.9733 56.7498 15.09 56.2298 15.09ZM56.2298 14.29C56.5565 14.29 56.8631 14.2133 57.1498 14.06C57.4365 13.9067 57.6665 13.6767 57.8398 13.37C58.0198 13.0633 58.1098 12.69 58.1098 12.25C58.1098 11.81 58.0231 11.4367 57.8498 11.13C57.6765 10.8233 57.4498 10.5967 57.1698 10.45C56.8898 10.2967 56.5865 10.22 56.2598 10.22C55.9265 10.22 55.6198 10.2967 55.3398 10.45C55.0665 10.5967 54.8465 10.8233 54.6798 11.13C54.5131 11.4367 54.4298 11.81 54.4298 12.25C54.4298 12.6967 54.5098 13.0733 54.6698 13.38C54.8365 13.6867 55.0565 13.9167 55.3298 14.07C55.6031 14.2167 55.9031 14.29 56.2298 14.29ZM67.5363 9.51998L65.8263 15H64.8863L63.5663 10.65L62.2463 15H61.3063L59.5863 9.51998H60.5163L61.7763 14.12L63.1363 9.51998H64.0663L65.3963 14.13L66.6363 9.51998H67.5363ZM71.1094 9.41998C71.7761 9.41998 72.3161 9.62331 72.7294 10.03C73.1428 10.43 73.3494 11.01 73.3494 11.77V15H72.4494V11.9C72.4494 11.3533 72.3128 10.9367 72.0394 10.65C71.7661 10.3567 71.3928 10.21 70.9194 10.21C70.4394 10.21 70.0561 10.36 69.7694 10.66C69.4894 10.96 69.3494 11.3967 69.3494 11.97V15H68.4394V9.51998H69.3494V10.3C69.5294 10.02 69.7728 9.80331 70.0794 9.64998C70.3928 9.49665 70.7361 9.41998 71.1094 9.41998ZM75.7459 7.59998V15H74.8359V7.59998H75.7459ZM79.6868 15.09C79.1735 15.09 78.7068 14.9733 78.2868 14.74C77.8735 14.5067 77.5468 14.1767 77.3068 13.75C77.0735 13.3167 76.9568 12.8167 76.9568 12.25C76.9568 11.69 77.0768 11.1967 77.3168 10.77C77.5635 10.3367 77.8968 10.0067 78.3168 9.77998C78.7368 9.54665 79.2068 9.42998 79.7268 9.42998C80.2468 9.42998 80.7168 9.54665 81.1368 9.77998C81.5568 10.0067 81.8868 10.3333 82.1268 10.76C82.3735 11.1867 82.4968 11.6833 82.4968 12.25C82.4968 12.8167 82.3702 13.3167 82.1168 13.75C81.8702 14.1767 81.5335 14.5067 81.1068 14.74C80.6802 14.9733 80.2068 15.09 79.6868 15.09ZM79.6868 14.29C80.0135 14.29 80.3202 14.2133 80.6068 14.06C80.8935 13.9067 81.1235 13.6767 81.2968 13.37C81.4768 13.0633 81.5668 12.69 81.5668 12.25C81.5668 11.81 81.4802 11.4367 81.3068 11.13C81.1335 10.8233 80.9068 10.5967 80.6268 10.45C80.3468 10.2967 80.0435 10.22 79.7168 10.22C79.3835 10.22 79.0768 10.2967 78.7968 10.45C78.5235 10.5967 78.3035 10.8233 78.1368 11.13C77.9702 11.4367 77.8868 11.81 77.8868 12.25C77.8868 12.6967 77.9668 13.0733 78.1268 13.38C78.2935 13.6867 78.5135 13.9167 78.7868 14.07C79.0602 14.2167 79.3602 14.29 79.6868 14.29ZM83.3533 12.24C83.3533 11.68 83.4667 11.19 83.6933 10.77C83.92 10.3433 84.23 10.0133 84.6233 9.77998C85.0233 9.54665 85.4667 9.42998 85.9533 9.42998C86.4333 9.42998 86.85 9.53331 87.2033 9.73998C87.5567 9.94665 87.82 10.2067 87.9933 10.52V9.51998H88.9133V15H87.9933V13.98C87.8133 14.3 87.5433 14.5667 87.1833 14.78C86.83 14.9867 86.4167 15.09 85.9433 15.09C85.4567 15.09 85.0167 14.97 84.6233 14.73C84.23 14.49 83.92 14.1533 83.6933 13.72C83.4667 13.2867 83.3533 12.7933 83.3533 12.24ZM87.9933 12.25C87.9933 11.8367 87.91 11.4767 87.7433 11.17C87.5767 10.8633 87.35 10.63 87.0633 10.47C86.7833 10.3033 86.4733 10.22 86.1333 10.22C85.7933 10.22 85.4833 10.3 85.2033 10.46C84.9233 10.62 84.7 10.8533 84.5333 11.16C84.3667 11.4667 84.2833 11.8267 84.2833 12.24C84.2833 12.66 84.3667 13.0267 84.5333 13.34C84.7 13.6467 84.9233 13.8833 85.2033 14.05C85.4833 14.21 85.7933 14.29 86.1333 14.29C86.4733 14.29 86.7833 14.21 87.0633 14.05C87.35 13.8833 87.5767 13.6467 87.7433 13.34C87.91 13.0267 87.9933 12.6633 87.9933 12.25ZM90.1111 12.24C90.1111 11.68 90.2245 11.19 90.4511 10.77C90.6778 10.3433 90.9878 10.0133 91.3811 9.77998C91.7811 9.54665 92.2278 9.42998 92.7211 9.42998C93.1478 9.42998 93.5445 9.52998 93.9111 9.72998C94.2778 9.92331 94.5578 10.18 94.7511 10.5V7.59998H95.6711V15H94.7511V13.97C94.5711 14.2967 94.3045 14.5667 93.9511 14.78C93.5978 14.9867 93.1845 15.09 92.7111 15.09C92.2245 15.09 91.7811 14.97 91.3811 14.73C90.9878 14.49 90.6778 14.1533 90.4511 13.72C90.2245 13.2867 90.1111 12.7933 90.1111 12.24ZM94.7511 12.25C94.7511 11.8367 94.6678 11.4767 94.5011 11.17C94.3345 10.8633 94.1078 10.63 93.8211 10.47C93.5411 10.3033 93.2311 10.22 92.8911 10.22C92.5511 10.22 92.2411 10.3 91.9611 10.46C91.6811 10.62 91.4578 10.8533 91.2911 11.16C91.1245 11.4667 91.0411 11.8267 91.0411 12.24C91.0411 12.66 91.1245 13.0267 91.2911 13.34C91.4578 13.6467 91.6811 13.8833 91.9611 14.05C92.2411 14.21 92.5511 14.29 92.8911 14.29C93.2311 14.29 93.5411 14.21 93.8211 14.05C94.1078 13.8833 94.3345 13.6467 94.5011 13.34C94.6678 13.0267 94.7511 12.6633 94.7511 12.25ZM102.265 15.09C101.752 15.09 101.285 14.9733 100.865 14.74C100.452 14.5067 100.125 14.1767 99.885 13.75C99.6516 13.3167 99.535 12.8167 99.535 12.25C99.535 11.69 99.655 11.1967 99.895 10.77C100.142 10.3367 100.475 10.0067 100.895 9.77998C101.315 9.54665 101.785 9.42998 102.305 9.42998C102.825 9.42998 103.295 9.54665 103.715 9.77998C104.135 10.0067 104.465 10.3333 104.705 10.76C104.952 11.1867 105.075 11.6833 105.075 12.25C105.075 12.8167 104.949 13.3167 104.695 13.75C104.449 14.1767 104.112 14.5067 103.685 14.74C103.259 14.9733 102.785 15.09 102.265 15.09ZM102.265 14.29C102.592 14.29 102.899 14.2133 103.185 14.06C103.472 13.9067 103.702 13.6767 103.875 13.37C104.055 13.0633 104.145 12.69 104.145 12.25C104.145 11.81 104.059 11.4367 103.885 11.13C103.712 10.8233 103.485 10.5967 103.205 10.45C102.925 10.2967 102.622 10.22 102.295 10.22C101.962 10.22 101.655 10.2967 101.375 10.45C101.102 10.5967 100.882 10.8233 100.715 11.13C100.549 11.4367 100.465 11.81 100.465 12.25C100.465 12.6967 100.545 13.0733 100.705 13.38C100.872 13.6867 101.092 13.9167 101.365 14.07C101.639 14.2167 101.939 14.29 102.265 14.29ZM108.942 9.41998C109.609 9.41998 110.149 9.62331 110.562 10.03C110.975 10.43 111.182 11.01 111.182 11.77V15H110.282V11.9C110.282 11.3533 110.145 10.9367 109.872 10.65C109.599 10.3567 109.225 10.21 108.752 10.21C108.272 10.21 107.889 10.36 107.602 10.66C107.322 10.96 107.182 11.3967 107.182 11.97V15H106.272V9.51998H107.182V10.3C107.362 10.02 107.605 9.80331 107.912 9.64998C108.225 9.49665 108.569 9.41998 108.942 9.41998ZM116.444 10.27V13.5C116.444 13.7667 116.501 13.9567 116.614 14.07C116.728 14.1767 116.924 14.23 117.204 14.23H117.874V15H117.054C116.548 15 116.168 14.8833 115.914 14.65C115.661 14.4167 115.534 14.0333 115.534 13.5V10.27H114.824V9.51998H115.534V8.13998H116.444V9.51998H117.874V10.27H116.444ZM121.697 9.41998C122.11 9.41998 122.484 9.50998 122.817 9.68998C123.15 9.86331 123.41 10.1267 123.597 10.48C123.79 10.8333 123.887 11.2633 123.887 11.77V15H122.987V11.9C122.987 11.3533 122.85 10.9367 122.577 10.65C122.304 10.3567 121.93 10.21 121.457 10.21C120.977 10.21 120.594 10.36 120.307 10.66C120.027 10.96 119.887 11.3967 119.887 11.97V15H118.977V7.59998H119.887V10.3C120.067 10.02 120.314 9.80331 120.627 9.64998C120.947 9.49665 121.304 9.41998 121.697 9.41998ZM130.374 12.05C130.374 12.2233 130.364 12.4067 130.344 12.6H125.964C125.997 13.14 126.18 13.5633 126.514 13.87C126.854 14.17 127.264 14.32 127.744 14.32C128.137 14.32 128.464 14.23 128.724 14.05C128.99 13.8633 129.177 13.6167 129.284 13.31H130.264C130.117 13.8367 129.824 14.2667 129.384 14.6C128.944 14.9267 128.397 15.09 127.744 15.09C127.224 15.09 126.757 14.9733 126.344 14.74C125.937 14.5067 125.617 14.1767 125.384 13.75C125.15 13.3167 125.034 12.8167 125.034 12.25C125.034 11.6833 125.147 11.1867 125.374 10.76C125.6 10.3333 125.917 10.0067 126.324 9.77998C126.737 9.54665 127.21 9.42998 127.744 9.42998C128.264 9.42998 128.724 9.54331 129.124 9.76998C129.524 9.99665 129.83 10.31 130.044 10.71C130.264 11.1033 130.374 11.55 130.374 12.05ZM129.434 11.86C129.434 11.5133 129.357 11.2167 129.204 10.97C129.05 10.7167 128.84 10.5267 128.574 10.4C128.314 10.2667 128.024 10.2 127.704 10.2C127.244 10.2 126.85 10.3467 126.524 10.64C126.204 10.9333 126.02 11.34 125.974 11.86H129.434Z" fill="#FFA500"/>
<path d="M55.404 24.0901C55.08 23.4661 54.63 22.9981 54.054 22.6861C53.478 22.3621 52.812 22.2001 52.056 22.2001C51.228 22.2001 50.49 22.3861 49.842 22.7581C49.194 23.1301 48.684 23.6581 48.312 24.3421C47.952 25.0261 47.772 25.8181 47.772 26.7181C47.772 27.6181 47.952 28.4161 48.312 29.1121C48.684 29.7961 49.194 30.3241 49.842 30.6961C50.49 31.0681 51.228 31.2541 52.056 31.2541C53.172 31.2541 54.078 30.9421 54.774 30.3181C55.47 29.6941 55.896 28.8481 56.052 27.7801H51.354V26.1421H58.248V27.7441C58.116 28.7161 57.768 29.6101 57.204 30.4261C56.652 31.2421 55.926 31.8961 55.026 32.3881C54.138 32.8681 53.148 33.1081 52.056 33.1081C50.88 33.1081 49.806 32.8381 48.834 32.2981C47.862 31.7461 47.088 30.9841 46.512 30.0121C45.948 29.0401 45.666 27.9421 45.666 26.7181C45.666 25.4941 45.948 24.3961 46.512 23.4241C47.088 22.4521 47.862 21.6961 48.834 21.1561C49.818 20.6041 50.892 20.3281 52.056 20.3281C53.388 20.3281 54.57 20.6581 55.602 21.3181C56.646 21.9661 57.402 22.8901 57.87 24.0901H55.404ZM64.5739 33.1621C63.6379 33.1621 62.7919 32.9521 62.0359 32.5321C61.2799 32.1001 60.6859 31.5001 60.2539 30.7321C59.8219 29.9521 59.6059 29.0521 59.6059 28.0321C59.6059 27.0241 59.8279 26.1301 60.2719 25.3501C60.7159 24.5701 61.3219 23.9701 62.0899 23.5501C62.8579 23.1301 63.7159 22.9201 64.6639 22.9201C65.6119 22.9201 66.4699 23.1301 67.2379 23.5501C68.0059 23.9701 68.6119 24.5701 69.0559 25.3501C69.4999 26.1301 69.7219 27.0241 69.7219 28.0321C69.7219 29.0401 69.4939 29.9341 69.0379 30.7141C68.5819 31.4941 67.9579 32.1001 67.1659 32.5321C66.3859 32.9521 65.5219 33.1621 64.5739 33.1621ZM64.5739 31.3801C65.1019 31.3801 65.5939 31.2541 66.0499 31.0021C66.5179 30.7501 66.8959 30.3721 67.1839 29.8681C67.4719 29.3641 67.6159 28.7521 67.6159 28.0321C67.6159 27.3121 67.4779 26.7061 67.2019 26.2141C66.9259 25.7101 66.5599 25.3321 66.1039 25.0801C65.6479 24.8281 65.1559 24.7021 64.6279 24.7021C64.0999 24.7021 63.6079 24.8281 63.1519 25.0801C62.7079 25.3321 62.3539 25.7101 62.0899 26.2141C61.8259 26.7061 61.6939 27.3121 61.6939 28.0321C61.6939 29.1001 61.9639 29.9281 62.5039 30.5161C63.0559 31.0921 63.7459 31.3801 64.5739 31.3801ZM76.0524 33.1621C75.1164 33.1621 74.2704 32.9521 73.5144 32.5321C72.7584 32.1001 72.1644 31.5001 71.7324 30.7321C71.3004 29.9521 71.0844 29.0521 71.0844 28.0321C71.0844 27.0241 71.3064 26.1301 71.7504 25.3501C72.1944 24.5701 72.8004 23.9701 73.5684 23.5501C74.3364 23.1301 75.1944 22.9201 76.1424 22.9201C77.0904 22.9201 77.9484 23.1301 78.7164 23.5501C79.4844 23.9701 80.0904 24.5701 80.5344 25.3501C80.9784 26.1301 81.2004 27.0241 81.2004 28.0321C81.2004 29.0401 80.9724 29.9341 80.5164 30.7141C80.0604 31.4941 79.4364 32.1001 78.6444 32.5321C77.8644 32.9521 77.0004 33.1621 76.0524 33.1621ZM76.0524 31.3801C76.5804 31.3801 77.0724 31.2541 77.5284 31.0021C77.9964 30.7501 78.3744 30.3721 78.6624 29.8681C78.9504 29.3641 79.0944 28.7521 79.0944 28.0321C79.0944 27.3121 78.9564 26.7061 78.6804 26.2141C78.4044 25.7101 78.0384 25.3321 77.5824 25.0801C77.1264 24.8281 76.6344 24.7021 76.1064 24.7021C75.5784 24.7021 75.0864 24.8281 74.6304 25.0801C74.1864 25.3321 73.8324 25.7101 73.5684 26.2141C73.3044 26.7061 73.1724 27.3121 73.1724 28.0321C73.1724 29.1001 73.4424 29.9281 73.9824 30.5161C74.5344 31.0921 75.2244 31.3801 76.0524 31.3801ZM87.2249 22.9201C87.9929 22.9201 88.6709 23.0761 89.2589 23.3881C89.8589 23.6881 90.3269 24.0661 90.6629 24.5221V23.0821H92.7329V33.1621C92.7329 34.0741 92.5409 34.8841 92.1569 35.5921C91.7729 36.3121 91.2149 36.8761 90.4829 37.2841C89.7629 37.6921 88.8989 37.8961 87.8909 37.8961C86.5469 37.8961 85.4309 37.5781 84.5429 36.9421C83.6549 36.3181 83.1509 35.4661 83.0309 34.3861H85.0649C85.2209 34.9021 85.5509 35.3161 86.0549 35.6281C86.5709 35.9521 87.1829 36.1141 87.8909 36.1141C88.7189 36.1141 89.3849 35.8621 89.8889 35.3581C90.4049 34.8541 90.6629 34.1221 90.6629 33.1621V31.5061C90.3149 31.9741 89.8409 32.3701 89.2409 32.6941C88.6529 33.0061 87.9809 33.1621 87.2249 33.1621C86.3609 33.1621 85.5689 32.9461 84.8489 32.5141C84.1409 32.0701 83.5769 31.4581 83.1569 30.6781C82.7489 29.8861 82.5449 28.9921 82.5449 27.9961C82.5449 27.0001 82.7489 26.1181 83.1569 25.3501C83.5769 24.5821 84.1409 23.9881 84.8489 23.5681C85.5689 23.1361 86.3609 22.9201 87.2249 22.9201ZM90.6629 28.0321C90.6629 27.3481 90.5189 26.7541 90.2309 26.2501C89.9549 25.7461 89.5889 25.3621 89.1329 25.0981C88.6769 24.8341 88.1849 24.7021 87.6569 24.7021C87.1289 24.7021 86.6369 24.8341 86.1809 25.0981C85.7249 25.3501 85.3529 25.7281 85.0649 26.2321C84.7889 26.7241 84.6509 27.3121 84.6509 27.9961C84.6509 28.6801 84.7889 29.2801 85.0649 29.7961C85.3529 30.3121 85.7249 30.7081 86.1809 30.9841C86.6489 31.2481 87.1409 31.3801 87.6569 31.3801C88.1849 31.3801 88.6769 31.2481 89.1329 30.9841C89.5889 30.7201 89.9549 30.3361 90.2309 29.8321C90.5189 29.3161 90.6629 28.7161 90.6629 28.0321ZM97.4801 19.6801V33.0001H95.4281V19.6801H97.4801ZM109.264 27.7981C109.264 28.1701 109.24 28.5061 109.192 28.8061H101.614C101.674 29.5981 101.968 30.2341 102.496 30.7141C103.024 31.1941 103.672 31.4341 104.44 31.4341C105.544 31.4341 106.324 30.9721 106.78 30.0481H108.994C108.694 30.9601 108.148 31.7101 107.356 32.2981C106.576 32.8741 105.604 33.1621 104.44 33.1621C103.492 33.1621 102.64 32.9521 101.884 32.5321C101.14 32.1001 100.552 31.5001 100.12 30.7321C99.7002 29.9521 99.4902 29.0521 99.4902 28.0321C99.4902 27.0121 99.6942 26.1181 100.102 25.3501C100.522 24.5701 101.104 23.9701 101.848 23.5501C102.604 23.1301 103.468 22.9201 104.44 22.9201C105.376 22.9201 106.21 23.1241 106.942 23.5321C107.674 23.9401 108.244 24.5161 108.652 25.2601C109.06 25.9921 109.264 26.8381 109.264 27.7981ZM107.122 27.1501C107.11 26.3941 106.84 25.7881 106.312 25.3321C105.784 24.8761 105.13 24.6481 104.35 24.6481C103.642 24.6481 103.036 24.8761 102.532 25.3321C102.028 25.7761 101.728 26.3821 101.632 27.1501H107.122ZM124.707 24.2161C124.707 24.8521 124.557 25.4521 124.257 26.0161C123.957 26.5801 123.477 27.0421 122.817 27.4021C122.157 27.7501 121.311 27.9241 120.279 27.9241H118.011V33.0001H115.959V20.4901H120.279C121.239 20.4901 122.049 20.6581 122.709 20.9941C123.381 21.3181 123.879 21.7621 124.203 22.3261C124.539 22.8901 124.707 23.5201 124.707 24.2161ZM120.279 26.2501C121.059 26.2501 121.641 26.0761 122.025 25.7281C122.409 25.3681 122.601 24.8641 122.601 24.2161C122.601 22.8481 121.827 22.1641 120.279 22.1641H118.011V26.2501H120.279ZM128.716 19.6801V33.0001H126.664V19.6801H128.716ZM130.727 27.9961C130.727 27.0001 130.931 26.1181 131.339 25.3501C131.759 24.5821 132.323 23.9881 133.031 23.5681C133.751 23.1361 134.543 22.9201 135.407 22.9201C136.187 22.9201 136.865 23.0761 137.441 23.3881C138.029 23.6881 138.497 24.0661 138.845 24.5221V23.0821H140.915V33.0001H138.845V31.5241C138.497 31.9921 138.023 32.3821 137.423 32.6941C136.823 33.0061 136.139 33.1621 135.371 33.1621C134.519 33.1621 133.739 32.9461 133.031 32.5141C132.323 32.0701 131.759 31.4581 131.339 30.6781C130.931 29.8861 130.727 28.9921 130.727 27.9961ZM138.845 28.0321C138.845 27.3481 138.701 26.7541 138.413 26.2501C138.137 25.7461 137.771 25.3621 137.315 25.0981C136.859 24.8341 136.367 24.7021 135.839 24.7021C135.311 24.7021 134.819 24.8341 134.363 25.0981C133.907 25.3501 133.535 25.7281 133.247 26.2321C132.971 26.7241 132.833 27.3121 132.833 27.9961C132.833 28.6801 132.971 29.2801 133.247 29.7961C133.535 30.3121 133.907 30.7081 134.363 30.9841C134.831 31.2481 135.323 31.3801 135.839 31.3801C136.367 31.3801 136.859 31.2481 137.315 30.9841C137.771 30.7201 138.137 30.3361 138.413 29.8321C138.701 29.3161 138.845 28.7161 138.845 28.0321ZM152.538 23.0821L146.454 37.6621H144.33L146.346 32.8381L142.44 23.0821H144.726L147.516 30.6421L150.414 23.0821H152.538Z" fill="#FFA500"/>
<path d="M15.7499 34.25C15.5374 34.2538 15.3249 34.2175 15.1249 34.1425L25.1924 24.0713L28.5249 27.4075L16.9561 33.9075C16.5897 34.1224 16.1746 34.2403 15.7499 34.25ZM14.2949 33.4188C14.0902 33.0481 13.9884 32.6295 13.9999 32.2063V13.825C13.9982 13.546 14.0404 13.2684 14.1249 13.0025L24.4161 23.2963L14.2911 33.4213L14.2949 33.4188ZM29.5186 26.8463L25.9674 23.2975L29.8836 19.3825L33.3624 21.3363C34.0299 21.6363 34.4774 22.28 34.5224 23.01C34.5002 23.3686 34.3803 23.7143 34.1756 24.0096C33.9709 24.3049 33.6892 24.5385 33.3611 24.685L29.5186 26.8463ZM25.1924 22.5175L14.7674 12.0938C15.0536 11.8813 15.3999 11.7687 15.7561 11.7675C16.1761 11.7825 16.5861 11.9012 16.9499 12.1137L28.8886 18.8238L25.1936 22.5175H25.1924Z" fill="#FFA500"/>
</g>
</g>
<defs>
<clipPath id="clip0_126_1731">
<rect width="166" height="44" fill="white"/>
</clipPath>
</defs>
</svg>
