<svg width="21" height="27" viewBox="0 0 21 27" fill="none" xmlns="http://www.w3.org/2000/svg">
<g clip-path="url(#clip0_35_263)">
<path d="M8.96118 25.85C6.24243 22.5898 0.195557 14.6883 0.195557 10.25C0.195557 4.86516 4.67264 0.5 10.1956 0.5C15.7164 0.5 20.1956 4.86516 20.1956 10.25C20.1956 14.6883 14.1018 22.5898 11.4299 25.85C10.7893 26.627 9.60181 26.627 8.96118 25.85ZM10.1956 13.5C12.0341 13.5 13.5289 12.0426 13.5289 10.25C13.5289 8.45742 12.0341 7 10.1956 7C8.35701 7 6.86222 8.45742 6.86222 10.25C6.86222 12.0426 8.35701 13.5 10.1956 13.5Z" fill="#7B6666"/>
</g>
<defs>
<clipPath id="clip0_35_263">
<rect width="20" height="26" fill="white" transform="translate(0.195557 0.5)"/>
</clipPath>
</defs>
</svg>
