<svg width="31" height="30" viewBox="0 0 31 30" fill="none" xmlns="http://www.w3.org/2000/svg">
<rect x="0.5" width="30" height="30" rx="6" fill="#DB3236"/>
<path fill-rule="evenodd" clip-rule="evenodd" d="M20.1673 9.75H10.834C9.84232 9.75 9.08398 10.5083 9.08398 11.5V18.5C9.08398 19.4917 9.84232 20.25 10.834 20.25H20.1673C21.159 20.25 21.9173 19.4917 21.9173 18.5V11.5C21.9173 10.5083 21.159 9.75 20.1673 9.75ZM10.834 10.9167H20.1673C20.4007 10.9167 20.5757 11.0333 20.6923 11.2667L15.5007 14.8833L10.309 11.2667C10.4257 11.0333 10.6007 10.9167 10.834 10.9167ZM10.2507 18.5C10.2507 18.85 10.484 19.0833 10.834 19.0833H20.1673C20.5173 19.0833 20.7507 18.85 20.7507 18.5V12.6083L15.8507 16.05C15.734 16.1083 15.6173 16.1667 15.5007 16.1667C15.384 16.1667 15.2673 16.1083 15.1507 16.05L10.2507 12.6083V18.5Z" fill="black"/>
<mask id="mask0_133_38326" style="mask-type:luminance" maskUnits="userSpaceOnUse" x="9" y="9" width="13" height="12">
<path fill-rule="evenodd" clip-rule="evenodd" d="M20.1673 9.75H10.834C9.84232 9.75 9.08398 10.5083 9.08398 11.5V18.5C9.08398 19.4917 9.84232 20.25 10.834 20.25H20.1673C21.159 20.25 21.9173 19.4917 21.9173 18.5V11.5C21.9173 10.5083 21.159 9.75 20.1673 9.75ZM10.834 10.9167H20.1673C20.4007 10.9167 20.5757 11.0333 20.6923 11.2667L15.5007 14.8833L10.309 11.2667C10.4257 11.0333 10.6007 10.9167 10.834 10.9167ZM10.2507 18.5C10.2507 18.85 10.484 19.0833 10.834 19.0833H20.1673C20.5173 19.0833 20.7507 18.85 20.7507 18.5V12.6083L15.8507 16.05C15.734 16.1083 15.6173 16.1667 15.5007 16.1667C15.384 16.1667 15.2673 16.1083 15.1507 16.05L10.2507 12.6083V18.5Z" fill="white"/>
</mask>
<g mask="url(#mask0_133_38326)">
<rect x="8.5" y="8" width="14" height="14" fill="white"/>
</g>
</svg>
