<svg width="31" height="30" viewBox="0 0 31 30" fill="none" xmlns="http://www.w3.org/2000/svg">
<rect x="0.5" width="30" height="30" rx="6" fill="#00ACEE"/>
<path fill-rule="evenodd" clip-rule="evenodd" d="M21.6117 9.27683C21.7864 9.1595 22.0774 9.1595 22.252 9.27683C22.4267 9.39415 22.5431 9.6288 22.4849 9.86345C22.3102 10.6847 21.9028 11.4473 21.3207 12.0926V12.3859C21.3207 15.6124 19.9237 18.3109 17.4207 19.7188C16.1401 20.4814 14.7431 20.8334 13.2879 20.8334C11.8327 20.8334 10.2611 20.4227 8.80588 19.6014C8.57304 19.4841 8.45663 19.1908 8.51483 18.9562C8.57304 18.7215 8.86408 18.5455 9.09692 18.5455C10.0865 18.5455 11.076 18.3695 11.9491 17.9589C9.79542 16.6096 9.21333 14.7324 9.15513 13.2659C9.09692 11.5647 9.679 10.1568 9.73721 10.0981C9.79542 9.92212 9.97004 9.74613 10.2029 9.74613C10.4357 9.74613 10.6103 9.80479 10.7268 9.98078C11.7163 11.3887 13.2297 12.2686 14.9178 12.3859C14.9178 11.4473 15.3252 10.5674 16.0819 9.98078C17.3043 8.86619 19.1088 8.92485 20.2729 9.98078C20.7386 9.80479 21.2043 9.57014 21.6117 9.27683ZM20.0983 12.034C20.0983 11.858 20.1565 11.6233 20.2729 11.506C20.3311 11.418 20.3894 11.3447 20.4476 11.2714C20.5058 11.198 20.564 11.1247 20.6222 11.0367C20.564 11.066 20.4912 11.0807 20.4185 11.0954C20.3457 11.11 20.2729 11.1247 20.2147 11.154C20.0401 11.2127 19.8073 11.154 19.6326 10.978C18.9341 10.1568 17.5953 10.0394 16.7804 10.8021C16.3148 11.2127 16.0819 11.7993 16.0819 12.3859V12.9726C16.0819 13.2659 15.7909 13.5592 15.4998 13.5592C13.579 13.6179 11.7745 12.8552 10.4939 11.5647C10.1447 13.0312 10.0283 15.9057 13.4043 17.4309C13.579 17.4896 13.7536 17.6656 13.7536 17.9002C13.7536 18.1349 13.6954 18.3109 13.4626 18.4282C12.8223 18.8975 12.1238 19.1908 11.367 19.4255C13.2879 19.8948 15.2088 19.6601 16.8386 18.7215C18.9341 17.4896 20.1565 15.2017 20.1565 12.3859C20.1565 12.2686 20.1565 12.1513 20.0983 12.034Z" fill="black"/>
<mask id="mask0_133_38329" style="mask-type:luminance" maskUnits="userSpaceOnUse" x="8" y="9" width="15" height="12">
<path fill-rule="evenodd" clip-rule="evenodd" d="M21.6117 9.27683C21.7864 9.1595 22.0774 9.1595 22.252 9.27683C22.4267 9.39415 22.5431 9.6288 22.4849 9.86345C22.3102 10.6847 21.9028 11.4473 21.3207 12.0926V12.3859C21.3207 15.6124 19.9237 18.3109 17.4207 19.7188C16.1401 20.4814 14.7431 20.8334 13.2879 20.8334C11.8327 20.8334 10.2611 20.4227 8.80588 19.6014C8.57304 19.4841 8.45663 19.1908 8.51483 18.9562C8.57304 18.7215 8.86408 18.5455 9.09692 18.5455C10.0865 18.5455 11.076 18.3695 11.9491 17.9589C9.79542 16.6096 9.21333 14.7324 9.15513 13.2659C9.09692 11.5647 9.679 10.1568 9.73721 10.0981C9.79542 9.92212 9.97004 9.74613 10.2029 9.74613C10.4357 9.74613 10.6103 9.80479 10.7268 9.98078C11.7163 11.3887 13.2297 12.2686 14.9178 12.3859C14.9178 11.4473 15.3252 10.5674 16.0819 9.98078C17.3043 8.86619 19.1088 8.92485 20.2729 9.98078C20.7386 9.80479 21.2043 9.57014 21.6117 9.27683ZM20.0983 12.034C20.0983 11.858 20.1565 11.6233 20.2729 11.506C20.3311 11.418 20.3894 11.3447 20.4476 11.2714C20.5058 11.198 20.564 11.1247 20.6222 11.0367C20.564 11.066 20.4912 11.0807 20.4185 11.0954C20.3457 11.11 20.2729 11.1247 20.2147 11.154C20.0401 11.2127 19.8073 11.154 19.6326 10.978C18.9341 10.1568 17.5953 10.0394 16.7804 10.8021C16.3148 11.2127 16.0819 11.7993 16.0819 12.3859V12.9726C16.0819 13.2659 15.7909 13.5592 15.4998 13.5592C13.579 13.6179 11.7745 12.8552 10.4939 11.5647C10.1447 13.0312 10.0283 15.9057 13.4043 17.4309C13.579 17.4896 13.7536 17.6656 13.7536 17.9002C13.7536 18.1349 13.6954 18.3109 13.4626 18.4282C12.8223 18.8975 12.1238 19.1908 11.367 19.4255C13.2879 19.8948 15.2088 19.6601 16.8386 18.7215C18.9341 17.4896 20.1565 15.2017 20.1565 12.3859C20.1565 12.2686 20.1565 12.1513 20.0983 12.034Z" fill="white"/>
</mask>
<g mask="url(#mask0_133_38329)">
<rect x="8.5" y="8" width="14" height="14" fill="white"/>
</g>
</svg>
